<?xml version="1.0" encoding="UTF-8"?>
<svg width="200" height="200" version="1.1" viewBox="0 0 200 200" xmlns="http://www.w3.org/2000/svg">
 <rect width="200" height="200" fill="#f0f0f0"/>
 <g fill="#999">
  <path d="m100 50c-13.807 0-25 11.193-25 25s11.193 25 25 25 25-11.193 25-25-11.193-25-25-25zm0 45c-11.046 0-20-8.954-20-20s8.954-20 20-20 20 8.954 20 20-8.954 20-20 20z"/>
  <path d="m100 105c-24.853 0-45 20.147-45 45h5c0-22.091 17.909-40 40-40s40 17.909 40 40h5c0-24.853-20.147-45-45-45z"/>
 </g>
 <text x="100" y="170" fill="#666" font-family="Arial" font-size="14" text-anchor="middle">Team Logo</text>
</svg> 